<svg height="200px" width="200px" version="1.1" id="Layer_1" xmlns="http://www.w3.org/2000/svg" xmlns:xlink="http://www.w3.org/1999/xlink" viewBox="-84.35 -84.35 664.86 664.86" xml:space="preserve" fill="#000000" stroke="#000000" stroke-width="0.00496158"><g id="SVGRepo_bgCarrier" stroke-width="0"><path transform="translate(-84.35, -84.35), scale(20.776875)" d="M16,28.329911705520416C18.72386397239681,29.40578754905818,22.10604748115155,30.917852720746968,24.552276929398047,29.307602660240512C27.00455728879021,27.693369539173077,26.233167580346137,23.867785147259656,27.058785286435036,21.050378017715868C27.746364025391536,18.704026641077416,29.044070492704634,16.57554716865689,28.99967482917466,14.130928930571873C28.95146462409513,11.476265451566443,28.539618796566884,8.647554743165411,26.797160987583425,6.644206746797433C25.055691315957084,4.641994837044758,22.34483349505071,3.4329988904563344,19.691241325045013,3.4287865236335513C17.24411837043861,3.4249019102925202,15.582510461603942,5.8934279626486825,13.246575191963302,6.622696268028324C10.972071568325205,7.33278589454678,8.286772552152687,6.271712245717293,6.312359928685762,7.60561209350438C4.175246356318651,9.049431604685685,2.3482191264248233,11.449760308006399,2.2852218971259823,14.028112601849156C2.2227299136852667,16.58578617963164,4.31414864468683,18.64057305994969,5.995627539887723,20.56884381466102C7.325698184239698,22.094129878330314,9.311520245241395,22.678904301392887,10.910532427582805,23.919366124954745C12.720931119348382,25.32381475102659,13.868920817297763,27.488174879977674,16,28.329911705520416" fill="#dd3165" strokewidth="0"></path></g><g id="SVGRepo_tracerCarrier" stroke-linecap="round" stroke-linejoin="round"></g><g id="SVGRepo_iconCarrier"> <path style="fill:#000000;" d="M496.158,248.085c0-137.022-111.068-248.082-248.074-248.082C111.07,0.003,0,111.063,0,248.085 c0,137.001,111.07,248.07,248.084,248.07C385.09,496.155,496.158,385.086,496.158,248.085z"></path> <g> <path style="fill:#940a0a;" d="M73.412,251.075c0,3.313-2.686,6-6,6H56.746c-3.314,0-6-2.687-6-6v-6.5c0-3.313,2.686-6,6-6h10.666 c3.314,0,6,2.687,6,6V251.075z"></path> <path style="fill:#940a0a;" d="M104.412,266.825c0,3.313-2.686,6-6,6H87.746c-3.314,0-6-2.687-6-6v-37.5c0-3.313,2.686-6,6-6 h10.666c3.314,0,6,2.687,6,6V266.825z"></path> </g> <g> <path style="fill:#e9754e;" d="M135.412,274.579c0,3.313-2.686,6-6,6h-10.666c-3.314,0-6-2.687-6-6v-53c0-3.313,2.686-6,6-6h10.666 c3.314,0,6,2.687,6,6V274.579z"></path> <path style="fill:#e9754e;" d="M166.412,290.079c0,3.313-2.686,6-6,6h-10.666c-3.314,0-6-2.687-6-6v-84c0-3.313,2.686-6,6-6h10.666 c3.314,0,6,2.687,6,6V290.079z"></path> </g> <g> <path style="fill:#c43636;" d="M197.412,321.079c0,3.313-2.686,6-6,6h-10.666c-3.314,0-6-2.687-6-6v-146c0-3.313,2.686-6,6-6 h10.666c3.314,0,6,2.687,6,6V321.079z"></path> <path style="fill:#c43636;" d="M228.412,336.579c0,3.313-2.686,6-6,6h-10.666c-3.314,0-6-2.687-6-6v-177c0-3.313,2.686-6,6-6 h10.666c3.314,0,6,2.687,6,6V336.579z"></path> </g> <path style="fill:#ff0000;" d="M259.412,383.079c0,3.313-2.686,6-6,6h-10.666c-3.314,0-6-2.687-6-6v-270c0-3.313,2.686-6,6-6h10.666 c3.314,0,6,2.687,6,6V383.079z"></path> <g> <path style="fill:#c43636;" d="M290.412,321.079c0,3.313-2.686,6-6,6h-10.666c-3.314,0-6-2.687-6-6v-146c0-3.313,2.686-6,6-6 h10.666c3.314,0,6,2.687,6,6V321.079z"></path> <path style="fill:#c43636;" d="M321.412,290.079c0,3.313-2.686,6-6,6h-10.666c-3.314,0-6-2.687-6-6v-84c0-3.313,2.686-6,6-6h10.666 c3.314,0,6,2.687,6,6V290.079z"></path> </g> <g> <path style="fill:#e9754e;" d="M352.412,305.579c0,3.313-2.686,6-6,6h-10.666c-3.314,0-6-2.687-6-6v-115c0-3.313,2.686-6,6-6 h10.666c3.314,0,6,2.687,6,6V305.579z"></path> <path style="fill:#e9754e;" d="M383.412,274.575c0,3.313-2.686,6-6,6h-10.666c-3.314,0-6-2.687-6-6v-53c0-3.313,2.686-6,6-6h10.666 c3.314,0,6,2.687,6,6V274.575z"></path> </g> <g> <path style="fill:#940a0a;" d="M445.412,251.261c0,3.314-2.686,6-6,6h-10.666c-3.314,0-6-2.686-6-6v-6.5c0-3.313,2.686-6,6-6 h10.666c3.314,0,6,2.687,6,6V251.261z"></path> <path style="fill:#940a0a;" d="M414.412,259.079c0,3.313-2.686,6-6,6h-10.666c-3.314,0-6-2.687-6-6v-22c0-3.313,2.686-6,6-6h10.666 c3.314,0,6,2.687,6,6V259.079z"></path> </g> </g></svg>